<?xml version="1.0" encoding="UTF-8"?>
<svg width="700pt" height="700pt" version="1.1" viewBox="0 0 700 700" xmlns="http://www.w3.org/2000/svg">
 <path d="m402.9 277.2c80.449 18.445 145.3 78 171.18 155.35 7.2461 21.141 3.8516 44.469-9.1172 62.668-12.984 18.184-33.93 28.996-56.262 29.051-83.543 0.73438-233.75 0.73438-317.27 0.73438-22.629 0-43.875-10.938-57-29.348-13.141-18.426-16.57-42.07-9.2031-63.453 26.512-77.09 91.438-136.57 171.85-155-43.625-20.07-73.953-64.172-73.953-115.32 0-70.016 56.859-126.88 126.88-126.88s126.88 56.859 126.88 126.88c0 51.152-30.328 95.27-73.973 115.32zm138 166.5c-26.703-79.836-102.13-137.45-190.91-137.45-88.828 0-164.29 57.68-191.66 137.34-3.6914 10.691-1.9961 22.523 4.5859 31.727 6.5625 9.2227 17.184 14.684 28.508 14.684 83.457 0 233.52 0 316.98-0.73438h0.15625c11.078 0 21.473-5.3555 27.895-14.367 6.4414-9.0312 8.1055-20.598 4.5-31.062-0.019532-0.054688-0.035157-0.10547-0.054688-0.14063zm-190.91-373.7c-50.715 0-91.875 41.16-91.875 91.875s41.16 91.875 91.875 91.875 91.875-41.16 91.875-91.875-41.16-91.875-91.875-91.875z" fill-rule="evenodd"/>
</svg>
